<svg xmlns="http://www.w3.org/2000/svg" xmlns:xlink="http://www.w3.org/1999/xlink" width="32" height="32" viewBox="0 0 32 32" fill="none"><defs><rect id="path_0" x="0" y="0" width="32" height="32" /></defs><g opacity="1" transform="translate(0 0)  rotate(0 16 16)"><mask id="bg-mask-0" fill="white"><use xlink:href="#path_0"></use></mask><g mask="url(#bg-mask-0)" ><path id="分组 1" fill-rule="evenodd" style="fill:#FCC0CC" transform="translate(0 0)  rotate(0 16 15.619047640625)" opacity="1" d="M25.6025 20.6301L25.8025 20.2401C25.9125 20.0201 26.0125 19.8001 26.1025 19.5701L26.2625 19.2001L26.6525 19.1201L30.4725 18.3501L30.4725 13.5801L26.8625 12.7301L26.4525 12.6401L26.3225 12.2401C26.2325 11.9801 26.1225 11.7201 26.0125 11.4601L25.8525 11.0901L26.0725 10.7401L28.1125 7.53008L24.6125 4.16008L21.5725 6.08008L21.2125 6.31008L20.8325 6.12008C20.5225 5.98008 20.2125 5.84008 19.8925 5.72008L19.5025 5.58008L19.4125 5.17008L18.6425 1.52008L13.7125 1.52008L12.8325 5.10008L12.7325 5.50008L12.3425 5.64008C12.1225 5.71008 11.9125 5.79008 11.7125 5.88008L11.3525 6.03008L11.0225 5.83008L7.69254 3.81008L4.24254 7.23008L6.19254 10.1701L6.43254 10.5401L6.23254 10.9301C6.10254 11.1801 5.99254 11.4401 5.88254 11.7101L5.73254 12.0701L5.35254 12.1601L1.52254 13.0601L1.52254 17.8201L5.13254 18.5501L5.55254 18.6301L5.69254 19.0401C5.79254 19.3101 5.89254 19.5701 6.01254 19.8301L6.17254 20.2001L5.96254 20.5401L3.85254 23.9101L7.32254 27.2901L10.5525 25.2201L10.9025 24.9901L11.2825 25.1701C11.5125 25.2801 11.7425 25.3701 11.9725 25.4601L12.3325 25.6101L12.4325 25.9901L13.3525 29.7101L18.2825 29.7101L19.0325 26.2101L19.1225 25.7801L19.5325 25.6401C19.7925 25.5601 20.0525 25.4601 20.3025 25.3501L20.6525 25.2101L20.9825 25.4001L24.4625 27.4801L27.9325 24.1001L25.8525 21.0001L25.6025 20.6301Z M28.2925 24.6201L28.3925 23.6501L27.9325 24.1001L28.2925 24.6201Z M24.4625 27.4801L24.0525 27.8901L24.9725 27.7801L24.4625 27.4801Z M13.8525 0.940077L13.1225 1.52008L13.7125 1.52008L13.8525 0.940077Z M3.89254 6.71008L3.80254 7.67008L4.24254 7.23008L3.89254 6.71008Z M24.1825 3.75008L24.6125 4.16008L25.1125 3.85008L24.1825 3.75008Z M13.5025 30.2901L13.3525 29.7101L12.7625 29.7101L13.5025 30.2901Z M7.75254 27.7101L7.32254 27.2901L6.81254 27.6201L7.75254 27.7101Z M31.0825 18.2201L30.4725 18.3501L30.4725 18.9701L31.0825 18.2201Z M28.5725 7.96008L28.4525 7.00008L28.1125 7.53008L28.5725 7.96008Z M18.6425 1.52008L19.2625 1.52008L18.5125 0.920077L18.6425 1.52008Z M3.85254 23.9101L3.41254 23.4801L3.52254 24.4301L3.85254 23.9101Z M1.52254 17.8201L0.912542 17.7001L1.52254 18.4501L1.52254 17.8201Z M1.52254 12.4601L0.932542 13.2001L1.52254 13.0601L1.52254 12.4601Z M7.18254 3.51008L7.69254 3.81008L8.11254 3.40008L7.18254 3.51008Z M18.9025 29.7101L18.2825 29.7101L18.1525 30.3201L18.9025 29.7101Z M31.0625 13.7201L30.4725 12.9801L30.4725 13.5801L31.0625 13.7201Z M26.89 20.3L26.96 20.61L27.35 20.53C27.35 20.53 27.35 20.52 27.36 20.51L27.11 20.15L26.89 20.3Z M27.36 20.51C27.41 20.39 27.46 20.27 27.51 20.16L26.81 19.86L26.89 20.3L27.11 20.15L27.36 20.51Z M26.48 20.58L27.16 20.92C27.23 20.79 27.29 20.66 27.35 20.53L26.96 20.61L26.89 20.3L26.48 20.58Z M26.81 19.86L27.51 20.16C27.46 20.27 27.41 20.39 27.36 20.51L27.37 20.53L31.39 19.72L32 19.59L32 18.97L32 12.98L32 12.38L31.41 12.24L27.61 11.35C27.67 11.48 27.71 11.61 27.76 11.74L27.04 11.99L27.17 11.45L26.71 11.15L27.41 10.85C27.46 10.97 27.52 11.1 27.57 11.23L29.74 7.82L30.07 7.29L29.62 6.86L25.24 2.65L24.81 2.24L24.3 2.56L21.11 4.57C21.24 4.63 21.37 4.69 21.49 4.75L21.16 5.44L20.81 4.87L20.16 5.01L20.43 4.3C20.56 4.35 20.69 4.4 20.82 4.45L20.01 0.6L19.88 0L19.26 0L13.12 0L12.52 0L12.38 0.58L11.45 4.31L11.49 4.33C11.6 4.28 11.72 4.24 11.84 4.2L12.09 4.92L11.64 4.81L11.42 5.18L11.12 4.47C11.23 4.43 11.34 4.39 11.45 4.34L11.45 4.31L7.97 2.2L7.47 1.9L7.04 2.31L2.73 6.59L2.28 7.03L2.63 7.55L4.68 10.65C4.74 10.51 4.81 10.38 4.88 10.24L5.56 10.59L5.06 10.92L5.18 11.42L4.47 11.13C4.52 11.01 4.57 10.88 4.63 10.76L0.59 11.71L0 11.85L0 12.46L0 18.45L0 19.07L0.61 19.19L4.41 19.96C4.36 19.82 4.31 19.69 4.26 19.55L4.98 19.3L4.86 19.86L5.31 20.14L4.62 20.45C4.56 20.32 4.51 20.2 4.46 20.07L2.23 23.62L1.9 24.14L2.34 24.57L6.69 28.81L7.12 29.23L7.63 28.9L11.03 26.72C10.9 26.67 10.77 26.61 10.64 26.55L10.96 25.86L11.24 26.29L11.69 26.17L11.42 26.88C11.29 26.83 11.17 26.78 11.05 26.73L12.02 30.66L12.16 31.24L12.76 31.24L18.9 31.24L19.52 31.24L19.65 30.63L20.43 26.94C20.29 26.99 20.15 27.04 20.02 27.09L19.77 26.37L20.34 26.49L20.59 26.06L20.89 26.76C20.77 26.81 20.65 26.86 20.53 26.9L24.19 29.09L24.69 29.39L25.11 28.98L29.46 24.74L29.91 24.3L29.56 23.77L27.37 20.53L27.35 20.53C27.29 20.66 27.23 20.79 27.16 20.92L26.48 20.58L26.89 20.3L26.81 19.86Z M20.88 4.72L20.76 4.79L20.81 4.87L20.91 4.85L20.88 4.72Z M20.81 4.87L21.16 5.44L21.49 4.75C21.37 4.69 21.24 4.63 21.11 4.57L20.88 4.72L20.91 4.85L20.81 4.87Z M20.82 4.45C20.69 4.4 20.56 4.35 20.43 4.3L20.16 5.01L20.81 4.87L20.76 4.79L20.88 4.72L20.82 4.45Z M21.11 4.57C21.01 4.53 20.92 4.49 20.82 4.45L20.88 4.72L21.11 4.57Z M27.37 20.53L27.36 20.51C27.35 20.52 27.35 20.53 27.35 20.53L27.37 20.53Z M26.71 11.15L27.17 11.45L27.22 11.25L27.51 11.32L27.57 11.23C27.52 11.1 27.46 10.97 27.41 10.85L26.71 11.15Z M11.69 26.17L11.24 26.29L11.38 26.5L11.04 26.72L11.05 26.73C11.17 26.78 11.29 26.83 11.42 26.88L11.69 26.17Z M20.34 26.49L20.2 26.71L20.45 26.86L20.52 26.52L20.34 26.49Z M20.45 26.86L20.53 26.9C20.65 26.86 20.77 26.81 20.89 26.76L20.59 26.06L20.34 26.49L20.52 26.52L20.45 26.86Z M19.77 26.37L20.02 27.09C20.15 27.04 20.29 26.99 20.43 26.94L20.45 26.86L20.2 26.71L20.34 26.49L19.77 26.37Z M27.51 11.32L27.35 11.56L27.17 11.45L27.04 11.99L27.76 11.74C27.71 11.61 27.67 11.48 27.61 11.35L27.51 11.32Z M27.57 11.23L27.51 11.32L27.61 11.35C27.6 11.31 27.58 11.27 27.57 11.23Z M27.22 11.25L27.17 11.45L27.35 11.56L27.51 11.32L27.22 11.25Z M4.41 19.96L4.51 19.98L4.67 19.73L4.86 19.86L4.98 19.3L4.26 19.55C4.31 19.69 4.36 19.82 4.41 19.96Z M4.46 20.07L4.51 19.98L4.41 19.96C4.43 20 4.44 20.03 4.46 20.07Z M4.62 20.45L5.31 20.14L4.86 19.86L4.83 20.04L4.51 19.98L4.46 20.07C4.51 20.2 4.56 20.32 4.62 20.45Z M4.74 10.74L4.92 11.01L5.06 10.92L5 10.68L4.74 10.74Z M5.06 10.92L5.56 10.59L4.88 10.24C4.81 10.38 4.74 10.51 4.68 10.65L4.74 10.74L5 10.68L5.06 10.92Z M4.63 10.76C4.57 10.88 4.52 11.01 4.47 11.13L5.18 11.42L5.06 10.92L4.92 11.01L4.74 10.74L4.63 10.76Z M4.68 10.65C4.66 10.69 4.64 10.72 4.63 10.76L4.74 10.74L4.68 10.65Z M10.64 26.55C10.77 26.61 10.9 26.67 11.03 26.72L11.04 26.72L10.95 26.36L11.24 26.29L10.96 25.86L10.64 26.55Z M20.53 26.9L20.45 26.86L20.43 26.94C20.46 26.93 20.5 26.92 20.53 26.9Z M11.45 4.34C11.46 4.34 11.47 4.33 11.49 4.33L11.45 4.31L11.45 4.34Z M11.35 4.74L11.64 4.81L11.81 4.53L11.49 4.33C11.47 4.33 11.46 4.34 11.45 4.34L11.35 4.74Z M11.12 4.47L11.42 5.18L11.64 4.81L11.35 4.74L11.45 4.34C11.34 4.39 11.23 4.43 11.12 4.47Z M11.49 4.33L11.81 4.53L11.64 4.81L12.09 4.92L11.84 4.2C11.72 4.24 11.6 4.28 11.49 4.33Z M4.86 19.86L4.67 19.73L4.51 19.98L4.83 20.04L4.86 19.86Z M11.05 26.73L11.04 26.72L11.03 26.72C11.03 26.73 11.04 26.73 11.05 26.73Z M11.38 26.5L11.24 26.29L10.95 26.36L11.04 26.72L11.38 26.5Z M21.3348 15.6229C21.3348 15.9829 21.2948 16.3329 21.2148 16.6829C21.1248 17.0929 21.3848 17.5029 21.8048 17.5929C22.2148 17.6829 22.6148 17.4229 22.7048 17.0129C22.8048 16.5529 22.8548 16.0929 22.8548 15.6229C22.8548 12.0429 19.9548 9.14286 16.3848 9.14286C12.8048 9.14286 9.90476 12.0429 9.90476 15.6229C9.90476 19.1929 12.8048 22.0929 16.3848 22.0929C17.2948 22.0929 18.1848 21.9029 19.0048 21.5429C19.3948 21.3729 19.5648 20.9229 19.3948 20.5329C19.2248 20.1529 18.7748 19.9729 18.3848 20.1429C17.7648 20.4229 17.0848 20.5729 16.3848 20.5729C13.6448 20.5729 11.4248 18.3529 11.4248 15.6229C11.4248 12.8829 13.6448 10.6629 16.3848 10.6629C19.1148 10.6629 21.3348 12.8829 21.3348 15.6229Z " /></g></g></svg>