<svg xmlns="http://www.w3.org/2000/svg" xmlns:xlink="http://www.w3.org/1999/xlink" width="32" height="32" viewBox="0 0 32 32" fill="none"><defs><rect id="path_0" x="0" y="0" width="32" height="32" /></defs><g opacity="1" transform="translate(0 0)  rotate(0 16 16)"><mask id="bg-mask-0" fill="white"><use xlink:href="#path_0"></use></mask><g mask="url(#bg-mask-0)" ><path id="路径 1" fill-rule="evenodd" style="fill:#E5E5E5" transform="translate(2.0000831572111917 2.0015)  rotate(0 14.000854928676327 13.998910494139619)" opacity="1" d="M0.79,12.52L3.72,15.51C5.07,16.89 5.91,19.6 5.59,21.54L4.9,25.76C4.58,27.7 5.69,28.54 7.35,27.63L10.97,25.63C12.64,24.72 15.37,24.72 17.03,25.63L20.65,27.63C22.31,28.54 23.42,27.7 23.1,25.76L22.41,21.54C22.09,19.6 22.93,16.89 24.28,15.51L27.21,12.52C28.56,11.15 28.14,9.79 26.28,9.51L22.23,8.89C20.36,8.61 18.16,6.93 17.33,5.16L15.51,1.32C14.68,-0.44 13.32,-0.44 12.49,1.32L10.67,5.16C9.84,6.93 7.64,8.61 5.77,8.89L1.72,9.51C-0.14,9.79 -0.56,11.15 0.79,12.52Z " /></g></g></svg>