<svg xmlns="http://www.w3.org/2000/svg" xmlns:xlink="http://www.w3.org/1999/xlink" width="32" height="32" viewBox="0 0 32 32" fill="none"><defs><rect id="path_0" x="0" y="0" width="32" height="32" /><rect id="path_1" x="0" y="0" width="32" height="32" /></defs><g opacity="1" transform="translate(0 0)  rotate(0 16 16)"><mask id="bg-mask-0" fill="white"><use xlink:href="#path_0"></use></mask><g mask="url(#bg-mask-0)" ><path id="分组 1" fill-rule="evenodd" style="fill:#E5E5E5" transform="translate(0 -0.000002460327998221601)  rotate(0 15.999985718749999 16.000001230164)" opacity="1" d="M17.14 21.6572L14.86 21.6572C13.59 21.6572 12.57 22.6772 12.57 23.9472L12.57 25.1472C12.57 25.4572 12.32 25.7172 12 25.7172L2.29 25.7172C1.02 25.7172 0 26.7372 0 27.9972L0 29.7172C0 30.9772 1.02 31.9972 2.29 31.9972L29.71 31.9972C30.98 31.9972 32 30.9772 32 29.7172L32 27.9972C32 26.7372 30.98 25.7172 29.71 25.7172L20 25.7172C19.68 25.7172 19.43 25.4572 19.43 25.1472L19.43 23.9472C19.43 22.6772 18.41 21.6572 17.14 21.6572Z M8.42137 20.21C8.32137 20.67 8.49137 21.15 8.87137 21.44C9.25137 21.73 9.76137 21.78 10.1814 21.57L15.4314 18.86C15.7814 18.66 16.2114 18.66 16.5714 18.86L21.7714 21.56C22.2014 21.77 22.7014 21.72 23.0814 21.43C23.4614 21.14 23.6314 20.66 23.5414 20.19L22.5614 14.62C22.5014 14.2 22.6414 13.78 22.9414 13.48L27.0114 9.58C27.3614 9.25 27.4914 8.74 27.3514 8.28C27.2114 7.81 26.8214 7.47 26.3414 7.38L20.6314 6.57C20.2314 6.5 19.8814 6.25 19.7014 5.89L17.0914 0.69C16.8914 0.27 16.4614 0 16.0014 0C15.5314 0 15.1114 0.27 14.9114 0.69L12.2714 5.89C12.0914 6.25 11.7514 6.5 11.3514 6.57L5.63137 7.38C5.16137 7.47 4.77137 7.81 4.63137 8.28C4.48137 8.74 4.62137 9.25 4.96137 9.58L9.01137 13.49C9.31137 13.79 9.45137 14.21 9.39137 14.63L8.42137 20.21Z " /><g opacity="1" transform="translate(1 1)  rotate(0 16 16)"><mask id="bg-mask-1" fill="white"><use xlink:href="#path_1"></use></mask><g mask="url(#bg-mask-1)" ><path id="分组 1" fill-rule="evenodd" style="fill:#FCC0CC" transform="translate(0 -0.000002460327998221601)  rotate(0 15.999985718749999 16.000001230164)" opacity="1" d="M17.14 21.6572L14.86 21.6572C13.59 21.6572 12.57 22.6772 12.57 23.9472L12.57 25.1472C12.57 25.4572 12.32 25.7172 12 25.7172L2.29 25.7172C1.02 25.7172 0 26.7372 0 27.9972L0 29.7172C0 30.9772 1.02 31.9972 2.29 31.9972L29.71 31.9972C30.98 31.9972 32 30.9772 32 29.7172L32 27.9972C32 26.7372 30.98 25.7172 29.71 25.7172L20 25.7172C19.68 25.7172 19.43 25.4572 19.43 25.1472L19.43 23.9472C19.43 22.6772 18.41 21.6572 17.14 21.6572Z M11.3514 6.57L5.63137 7.38C5.16137 7.47 4.77137 7.81 4.63137 8.28C4.48137 8.74 4.62137 9.25 4.96137 9.58L9.01137 13.49C9.31137 13.79 9.45137 14.21 9.39137 14.63L8.42137 20.21C8.32137 20.67 8.49137 21.15 8.87137 21.44C9.25137 21.73 9.76137 21.78 10.1814 21.57L15.4314 18.86C15.7814 18.66 16.2114 18.66 16.5714 18.86L21.7714 21.56C22.2014 21.77 22.7014 21.72 23.0814 21.43C23.4614 21.14 23.6314 20.66 23.5414 20.19L22.5614 14.62C22.5014 14.2 22.6414 13.78 22.9414 13.48L27.0114 9.58C27.3614 9.25 27.4914 8.74 27.3514 8.28C27.2114 7.81 26.8214 7.47 26.3414 7.38L20.6314 6.57C20.2314 6.5 19.8814 6.25 19.7014 5.89L17.0914 0.69C16.8914 0.27 16.4614 0 16.0014 0C15.5314 0 15.1114 0.27 14.9114 0.69L12.2714 5.89C12.0914 6.25 11.7514 6.5 11.3514 6.57Z " /></g></g></g></g></svg>