<svg xmlns="http://www.w3.org/2000/svg" xmlns:xlink="http://www.w3.org/1999/xlink" width="16" height="16" viewBox="0 0 16 16" fill="none"><defs><rect id="path_0" x="0" y="0" width="16" height="16" /></defs><g opacity="1" transform="translate(0 0)  rotate(0 8 8)"><mask id="bg-mask-0" fill="white"><use xlink:href="#path_0"></use></mask><g mask="url(#bg-mask-0)" ><path  id="路径 1" style="stroke:#F2A2B5; stroke-width:1.3333333333333333; stroke-opacity:1; stroke-dasharray:0 0" transform="translate(2.333333333333333 6.666666666666666)  rotate(0 5.666666666666666 4)" d="M5.67,0C2.54,0 0,1.79 0,4C0,6.21 2.54,8 5.67,8C8.8,8 11.33,6.21 11.33,4C11.33,1.79 8.8,0 5.67,0Z " /><path id="路径 2" fill-rule="evenodd" style="fill:#F2A2B5" transform="translate(5.333333333333333 9.137366666666665)  rotate(0 0.6666666666666666 0.6666666666666666)" opacity="1" d="M0.67,0C0.3,0 0,0.3 0,0.67C0,1.03 0.3,1.33 0.67,1.33C1.03,1.33 1.33,1.03 1.33,0.67C1.33,0.3 1.03,0 0.67,0Z " /><path id="路径 3" fill-rule="evenodd" style="fill:#F2A2B5" transform="translate(7.333333333333333 11.137366666666667)  rotate(0 0.6666666666666666 0.6666666666666666)" opacity="1" d="M0.67,0C0.3,0 0,0.3 0,0.67C0,1.03 0.3,1.33 0.67,1.33C1.03,1.33 1.33,1.03 1.33,0.67C1.33,0.3 1.03,0 0.67,0Z " /><path id="路径 4" fill-rule="evenodd" style="fill:#F2A2B5" transform="translate(9.333333333333332 9.137366666666665)  rotate(0 0.6666666666666666 0.6666666666666666)" opacity="1" d="M0.67,0C0.3,0 0,0.3 0,0.67C0,1.03 0.3,1.33 0.67,1.33C1.03,1.33 1.33,1.03 1.33,0.67C1.33,0.3 1.03,0 0.67,0Z " /><path  id="路径 5" style="stroke:#F2A2B5; stroke-width:1.3333333333333333; stroke-opacity:1; stroke-dasharray:0 0" transform="translate(3.3333326740377425 1.3333321655242756)  rotate(0 1.1666628296477959 3.0000005839045287)" d="M0.89,6C0.45,4.94 -0.31,2.37 0.14,0.64C0.26,0.3 0.74,-0.26 1.64,0.14C1.77,0.19 2.05,0.4 2.2,0.8C2.58,1.47 2.02,5.67 2.02,5.67 " /><path  id="路径 6" style="stroke:#F2A2B5; stroke-width:1.3333333333333333; stroke-opacity:1; stroke-dasharray:0 0" transform="translate(10.33332402292485 1.3333321655242756)  rotate(0 1.166670206034699 3.0000005839045287)" d="M1.46,6C1.9,4.94 2.64,2.37 2.19,0.64C2.07,0.3 1.59,-0.26 0.69,0.14C0.56,0.19 0.28,0.4 0.13,0.8C-0.25,1.47 0.33,5.33 0.33,5.33 " /></g></g></svg>