<svg xmlns="http://www.w3.org/2000/svg" xmlns:xlink="http://www.w3.org/1999/xlink" width="16" height="16" viewBox="0 0 16 16" fill="none"><defs><rect id="path_0" x="0" y="0" width="16" height="16" /></defs><g opacity="1" transform="translate(0 0)  rotate(0 8 8)"><mask id="bg-mask-0" fill="white"><use xlink:href="#path_0"></use></mask><g mask="url(#bg-mask-0)" ><path id="路径 1" fill-rule="evenodd" style="fill:#FFD635" transform="translate(0.03578553125000017 1.1333510840927374e-7)  rotate(0 7.964197617187501 7.999999943332446)" opacity="1" d="M13.57,13.5C14.3,12.77 15.04,11.98 15.44,11.02C15.83,10.08 15.93,9.01 15.93,7.94C15.93,6.87 15.61,5.88 15.22,4.95C14.82,3.98 14.42,2.98 13.69,2.25C12.96,1.52 11.98,1.08 11.01,0.68C10.08,0.29 9.08,0 8.01,0C6.97,0 5.93,0.2 4.97,0.6C4,1 3.16,1.62 2.43,2.36C1.7,3.09 1.01,3.9 0.61,4.87C0.21,5.84 0,6.89 0,7.94C0,9.01 0.33,10.02 0.72,10.96C1.13,11.91 1.72,12.77 2.46,13.49C3.19,14.22 4.01,14.86 4.98,15.27C5.91,15.65 6.94,16 8.01,16C9.09,16 10.07,15.55 11,15.16C11.96,14.78 12.84,14.22 13.57,13.5Z " /><path id="路径 2" fill-rule="evenodd" style="fill:#F7B523" transform="translate(0.03578553124999928 1.1333510929745216e-7)  rotate(0 6.5545409296875 7.999999943332445)" opacity="1" d="M0.61,4.87C0.21,5.85 0,6.89 0,7.94C0,9.01 0.33,10.02 0.72,10.96C1.13,11.91 1.72,12.77 2.46,13.49C3.19,14.22 4.01,14.86 4.98,15.27C5.91,15.65 6.94,16 8.01,16C9.09,16 10.07,15.55 11.01,15.16C11.77,14.86 12.48,14.44 13.11,13.92C12.93,14.01 12.74,14.1 12.55,14.18C11.66,14.54 10.74,14.97 9.72,14.97C8.7,14.97 7.74,14.64 6.85,14.27C5.94,13.9 5.17,13.29 4.48,12.6C3.78,11.92 3.23,11.1 2.85,10.21C2.48,9.33 2.17,8.38 2.17,7.36C2.17,6.37 2.36,5.39 2.74,4.47C3.12,3.56 3.77,2.79 4.46,2.1C5.14,1.41 5.94,0.82 6.85,0.44C7.32,0.25 7.81,0.1 8.31,0.01C8.21,0 8.11,0 8.01,0C6.97,0 5.93,0.2 4.97,0.6C4,1 3.16,1.63 2.43,2.36C1.7,3.09 1.01,3.91 0.61,4.87Z " /><path id="路径 3" fill-rule="evenodd" style="fill:#FFEF57" transform="translate(6.770220890625 1.307653640625)  rotate(0 2.1398733671874997 0.44140765711805585)" opacity="1" d="M2.16,0C1.87,0 1.58,0.04 1.3,0.12C1.06,0.18 0.83,0.27 0.61,0.38C0.45,0.46 0.3,0.55 0.16,0.64C0.06,0.71 0,0.76 0,0.76L0.05,0.76L0.2,0.75L0.7,0.71C1.17,0.66 1.65,0.66 2.13,0.71C2.16,0.71 2.19,0.72 2.22,0.72L2.32,0.74C2.39,0.75 2.45,0.76 2.51,0.77L2.7,0.8L2.88,0.83C3,0.84 3.12,0.86 3.23,0.86C3.34,0.87 3.45,0.88 3.55,0.88C3.66,0.88 3.75,0.88 3.84,0.88C3.92,0.88 4,0.88 4.07,0.87C4.2,0.86 4.28,0.85 4.28,0.85C4.27,0.83 4.26,0.81 4.25,0.8C4.21,0.76 4.18,0.72 4.14,0.68C4.02,0.55 3.87,0.44 3.71,0.35C3.61,0.29 3.5,0.23 3.39,0.19C3.27,0.14 3.14,0.1 3.02,0.07C2.95,0.06 2.88,0.04 2.81,0.03C2.74,0.03 2.67,0.01 2.6,0.01C2.53,0 2.45,0 2.38,0L2.16,0Z " /><path id="分组 1" fill-rule="evenodd" style="fill:#FFA926" transform="translate(3.178135156249998 6.844856629202268)  rotate(0 6.209743257812501 2.257337411011499)" opacity="1" d="M3.48 0.997679C3.1 0.627679 2.63 0.297679 2.05 0.297679C1.48 0.297679 0.93 0.507679 0.52 0.89768C0.14 1.27768 0 1.86768 0 2.43768C0 3.01768 0.14 3.59768 0.52 3.97768C0.89 4.35768 1.47 4.51768 2.05 4.51768C2.6 4.51768 3.13 4.29768 3.51 3.90768C3.91 3.51768 4.14 2.99768 4.15 2.43768C4.15 1.85768 3.86 1.37768 3.48 0.997679Z M9.45737 2.98C9.77737 3.3 10.1974 3.58 10.6874 3.58C11.1674 3.58 11.5774 3.28 11.8974 2.96C12.2274 2.65 12.4174 2.21 12.4174 1.75C12.4174 1.27 12.2674 0.8 11.9574 0.49C11.2374 -0.17 10.1374 -0.16 9.42737 0.49C9.08737 0.83 8.89737 1.28 8.88737 1.75C8.88737 2.24 9.13737 2.66 9.45737 2.98Z " /><g opacity="1" transform="translate(4.624760013399056 4.1211639843749985)  rotate(0 4.535325702340982 4.2192983359374985)"><path id="路径 6" fill-rule="evenodd" style="fill:#943436" transform="translate(0.8039177681207494 5.747298915790457)  rotate(0 3.972232627976186 1.3456488780422706)" opacity="1" d="M0.24,0.75C0.28,0.8 0.32,0.86 0.36,0.92L0.52,1.12L0.71,1.33C0.79,1.41 0.86,1.48 0.94,1.55C1.12,1.71 1.32,1.86 1.52,1.99C1.63,2.06 1.75,2.12 1.86,2.19C1.92,2.22 1.98,2.25 2.05,2.27C2.11,2.3 2.18,2.33 2.24,2.36L2.44,2.43L2.64,2.5C2.78,2.55 2.93,2.58 3.07,2.61L3.29,2.64C3.36,2.65 3.44,2.66 3.52,2.67L3.64,2.68C3.68,2.68 3.71,2.68 3.74,2.68L3.95,2.69L4.19,2.68C4.26,2.68 4.34,2.67 4.41,2.67C4.57,2.66 4.71,2.63 4.86,2.61C5,2.58 5.14,2.54 5.28,2.5L5.49,2.43L5.69,2.36C5.76,2.34 5.82,2.31 5.88,2.28C5.95,2.25 6.01,2.22 6.07,2.19C6.19,2.13 6.31,2.07 6.41,1.99C6.62,1.87 6.81,1.72 6.99,1.56C7.08,1.49 7.15,1.41 7.23,1.34L7.42,1.13L7.58,0.94C7.63,0.87 7.67,0.81 7.71,0.76C7.76,0.68 7.81,0.6 7.86,0.51L7.91,0.43L7.91,0.41C7.98,0.29 7.94,0.13 7.83,0.05C7.71,-0.03 7.55,-0.01 7.46,0.1C7.46,0.1 7.43,0.13 7.39,0.18C7.35,0.23 7.29,0.31 7.22,0.38C7.18,0.42 7.15,0.47 7.1,0.52L6.94,0.67L6.75,0.83L6.54,1C6.38,1.13 6.2,1.24 6.02,1.33C5.82,1.44 5.62,1.54 5.4,1.61C5.18,1.7 4.94,1.76 4.7,1.81C4.58,1.83 4.46,1.85 4.33,1.85C4.27,1.86 4.21,1.87 4.15,1.87L3.67,1.87L3.58,1.86C3.52,1.85 3.46,1.85 3.4,1.84L3.21,1.81C2.98,1.77 2.74,1.71 2.51,1.63C2.3,1.55 2.09,1.46 1.89,1.35C1.71,1.26 1.53,1.15 1.37,1.03C1.29,0.97 1.22,0.91 1.15,0.86L0.96,0.7L0.8,0.54C0.75,0.49 0.71,0.45 0.67,0.4C0.6,0.32 0.54,0.25 0.5,0.21L0.44,0.13L0.44,0.13C0.35,0.03 0.21,0.01 0.11,0.08C0,0.16 -0.03,0.3 0.03,0.41L0.08,0.5C0.13,0.59 0.18,0.67 0.24,0.75Z " /><path id="路径 7" fill-rule="evenodd" style="fill:#943436" transform="translate(0 0.10445482812500106)  rotate(0 1.5166451301282087 1.2870062494503585)" opacity="1" d="M0.55,1.65C0.56,1.6 0.58,1.55 0.59,1.49C0.6,1.47 0.61,1.44 0.61,1.41C0.62,1.39 0.63,1.36 0.64,1.34C0.68,1.23 0.73,1.13 0.79,1.03C0.85,0.94 0.92,0.86 1.01,0.79C1.08,0.73 1.17,0.69 1.26,0.67L1.23,0.67L1.29,0.67L1.35,0.66L1.47,0.66C1.49,0.66 1.51,0.67 1.54,0.68C1.64,0.7 1.74,0.75 1.83,0.8C1.92,0.87 2.01,0.94 2.1,1.02C2.12,1.04 2.14,1.06 2.16,1.08C2.17,1.1 2.19,1.12 2.21,1.14C2.24,1.18 2.27,1.23 2.31,1.27C2.34,1.31 2.36,1.35 2.39,1.39C2.42,1.43 2.44,1.47 2.46,1.51C2.51,1.57 2.54,1.64 2.58,1.7L2.66,1.88L2.68,1.93C2.72,2.01 2.82,2.05 2.9,2.02C2.99,1.99 3.04,1.91 3.03,1.82L3.02,1.76C3.01,1.72 3.01,1.66 2.99,1.59C2.97,1.52 2.95,1.43 2.92,1.33C2.88,1.22 2.84,1.11 2.78,1C2.75,0.95 2.72,0.88 2.68,0.83C2.64,0.76 2.6,0.7 2.55,0.65C2.45,0.51 2.33,0.4 2.2,0.3C2.06,0.19 1.89,0.1 1.71,0.05C1.66,0.04 1.62,0.02 1.57,0.02C1.52,0.01 1.46,0 1.41,0L1.25,0L1.19,0.01L1.11,0.01C0.91,0.06 0.73,0.15 0.57,0.29C0.44,0.41 0.32,0.55 0.23,0.72C0.15,0.86 0.1,1.02 0.06,1.18C0.04,1.25 0.03,1.32 0.02,1.39C0.01,1.46 0.01,1.53 0,1.6C0,1.72 0,1.83 0.01,1.95C0.02,2.05 0.04,2.15 0.06,2.22C0.07,2.3 0.09,2.34 0.1,2.38L0.11,2.44L0.12,2.44C0.15,2.53 0.23,2.58 0.33,2.57C0.42,2.56 0.49,2.48 0.49,2.39L0.49,2.31C0.49,2.28 0.48,2.21 0.49,2.15C0.49,2.09 0.5,2.02 0.51,1.93C0.51,1.89 0.52,1.84 0.53,1.8C0.54,1.75 0.54,1.7 0.55,1.65Z " /><path id="路径 8" fill-rule="evenodd" style="fill:#943436" transform="translate(5.987077611600944 0)  rotate(0 1.5417868965405095 1.3369434882326199)" opacity="1" d="M2.91,2.55L2.92,2.54L2.94,2.48C2.96,2.43 2.98,2.38 2.99,2.33C3.02,2.24 3.04,2.15 3.05,2.05C3.07,1.94 3.08,1.82 3.08,1.69C3.09,1.55 3.07,1.4 3.04,1.26C3.01,1.09 2.95,0.93 2.87,0.78C2.79,0.6 2.67,0.44 2.52,0.31C2.35,0.17 2.15,0.06 1.94,0.01L1.91,0.01L1.85,0.01L1.79,0L1.57,0L1.53,0.01L1.44,0.02C1.39,0.03 1.34,0.04 1.29,0.05C1.1,0.11 0.93,0.2 0.77,0.33C0.64,0.43 0.52,0.55 0.42,0.69C0.33,0.81 0.26,0.94 0.2,1.07C0.11,1.26 0.05,1.47 0.02,1.68C0,1.76 0,1.81 0,1.85L0,1.91C0,2 0.07,2.08 0.15,2.1C0.24,2.12 0.33,2.07 0.37,1.99C0.37,1.99 0.39,1.93 0.44,1.81C0.47,1.73 0.5,1.67 0.53,1.6C0.55,1.56 0.58,1.52 0.6,1.48C0.63,1.43 0.65,1.39 0.68,1.35C0.71,1.3 0.74,1.25 0.78,1.21C0.81,1.16 0.85,1.12 0.89,1.08C0.97,0.99 1.06,0.91 1.16,0.84C1.25,0.77 1.36,0.72 1.48,0.69C1.5,0.68 1.53,0.68 1.56,0.68C1.58,0.67 1.61,0.67 1.64,0.67L1.67,0.67C1.68,0.67 1.68,0.66 1.71,0.67L1.77,0.68L1.82,0.68L1.8,0.68C1.91,0.7 2.01,0.75 2.09,0.82C2.19,0.9 2.26,0.99 2.32,1.09C2.38,1.2 2.43,1.31 2.47,1.42C2.49,1.47 2.5,1.53 2.51,1.59C2.53,1.64 2.53,1.69 2.54,1.75C2.55,1.8 2.55,1.85 2.56,1.9C2.57,1.95 2.57,1.99 2.57,2.04C2.57,2.13 2.57,2.2 2.57,2.26C2.56,2.32 2.56,2.38 2.56,2.42L2.56,2.47C2.55,2.55 2.6,2.63 2.67,2.66C2.77,2.7 2.87,2.65 2.91,2.55Z " /></g></g></g></svg>