<svg xmlns="http://www.w3.org/2000/svg" xmlns:xlink="http://www.w3.org/1999/xlink" width="16" height="16" viewBox="0 0 16 16" fill="none"><defs><rect id="path_0" x="0" y="0" width="16" height="16" /></defs><g opacity="1" transform="translate(0 0)  rotate(0 8 8)"><mask id="bg-mask-0" fill="white"><use xlink:href="#path_0"></use></mask><g mask="url(#bg-mask-0)" ><path  id="路径 1" style="stroke:#FCEC53; stroke-width:1.3333333333333333; stroke-opacity:1; stroke-dasharray:0 0" transform="translate(4 1.3333333333333333)  rotate(0 4 4.333333333333333)" d="M8,4.55L8,0L0,0L0,4.55C0,6.82 1.79,8.67 4,8.67C6.21,8.67 8,6.82 8,4.55Z " /><path  id="路径 2" style="stroke:#FCEC53; stroke-width:1.3333333333333333; stroke-opacity:1; stroke-dasharray:0 0" transform="translate(1.3333333333333333 3.6666666666666665)  rotate(0 1.3333333333333333 1.6666666666666665)" d="M2.67,0L0,0C0,2.22 1.33,3.33 2.67,3.33L2.67,0Z " /><path  id="路径 3" style="stroke:#FCEC53; stroke-width:1.3333333333333333; stroke-opacity:1; stroke-dasharray:0 0" transform="translate(12 3.6666666666666665)  rotate(0 1.3333333333333333 1.6666666666666665)" d="M2.67,0L0,0L0,3.33C1.33,3.33 2.67,2.22 2.67,0Z " /><path  id="路径 4" style="stroke:#FCEC53; stroke-width:1.3333333333333333; stroke-opacity:1; stroke-dasharray:0 0" transform="translate(8 10.666666666666666)  rotate(0 0 0.6666666666666666)" d="M0,0L0,1.33 " /><path  id="路径 5" style="stroke:#FCEC53; stroke-width:1.3333333333333333; stroke-opacity:1; stroke-dasharray:0 0" transform="translate(5 12)  rotate(0 3 1)" d="M6,2L4.68,0L1.23,0L0,2L6,2Z " /></g></g></svg>