<svg xmlns="http://www.w3.org/2000/svg" xmlns:xlink="http://www.w3.org/1999/xlink" width="14" height="14" viewBox="0 0 14 14" fill="none"><defs><rect id="path_0" x="0" y="0" width="14" height="14" /></defs><g opacity="1" transform="translate(0 0)  rotate(0 7 7)"><mask id="bg-mask-0" fill="white"><use xlink:href="#path_0"></use></mask><g mask="url(#bg-mask-0)" ><path id="路径 1" fill-rule="evenodd" style="fill:#A6A6A6" transform="translate(1.0266666621093758 1.7966666621093745)  rotate(0 5.284999999999999 4.41)" opacity="0.3" d="M10.57,0L6.98,0C6.35,0 5.67,0.28 5.32,0.72C4.95,0.28 4.29,0 3.66,0L0,0L0,8.31L3.29,8.31C4.55,8.28 4.74,8.47 4.83,8.56C4.9,8.63 4.95,8.73 4.97,8.82L5.58,8.82C5.6,8.7 5.67,8.59 5.76,8.52C5.93,8.42 6.16,8.28 7.58,8.31L10.57,8.31L10.57,0Z " /><path id="分组 1" fill-rule="evenodd" style="fill:#A6A6A6" transform="translate(0.6766666621093744 1.446666662109375)  rotate(0 5.635 4.771666668945313)" opacity="0.3" d="M0.35 9.03L3.66 9.03C4.15 9.03 4.78 9.05 4.95 9.19C4.97 9.22 4.99 9.24 4.99 9.29C5.04 9.43 5.18 9.54 5.34 9.54L5.95 9.54C6.11 9.54 6.25 9.43 6.28 9.26C6.3 9.22 6.32 9.17 6.35 9.15C6.44 9.1 6.67 8.98 7.96 9.01L10.92 9.01C11.11 9.01 11.27 8.84 11.27 8.66L11.27 0.35C11.27 0.16 11.11 0 10.92 0L7.3 0C6.7 0 6.09 0.23 5.65 0.58C5.23 0.21 4.6 0 3.99 0L0.35 0C0.16 0 0 0.16 0 0.35L0 8.68C0 8.87 0.16 9.03 0.35 9.03Z M5.90667 8.61L5.92667 8.59C6.15667 8.42 6.48667 8.31 7.93667 8.31L10.5667 8.31L10.5667 0.7L7.30667 0.7C6.76667 0.7 6.20667 0.93 5.90667 1.31C5.83667 1.38 5.73667 1.45 5.62667 1.45C5.52667 1.45 5.41667 1.4 5.34667 1.33C5.03667 0.98 4.47667 0.72 3.94667 0.72L0.676667 0.72L0.676667 8.33L3.61667 8.33C4.87667 8.31 5.20667 8.49 5.38667 8.68C5.48667 8.73 5.52667 8.77 5.57667 8.84L5.71667 8.84C5.76667 8.75 5.83667 8.68 5.90667 8.61Z " /><path id="分组 2" fill-rule="evenodd" style="fill:#A6A6A6" transform="translate(0.46666666210937535 1.540000000000001)  rotate(0 6.533333337890625 5.5066666689453125)" opacity="1" d="M12.72 10.41C12.9 10.41 13.07 10.24 13.07 10.06L13.07 0.35C13.07 0.16 12.9 0 12.72 0L8.47 0C7.77 0 7.02 0.26 6.53 0.7C6.04 0.26 5.32 0 4.6 0L0.35 0C0.16 0 0 0.16 0 0.35L0 10.06C0 10.24 0.16 10.41 0.35 10.41L4.2 10.41C5.09 10.41 5.6 10.48 5.76 10.62L5.83 10.76C5.88 10.9 6.02 11.01 6.18 11.01L6.88 11.01C7.05 11.01 7.19 10.9 7.21 10.76C7.23 10.69 7.26 10.64 7.3 10.59C7.42 10.52 7.68 10.38 9.22 10.41L12.72 10.41Z M6.79 1.42C6.72 1.49 6.63 1.56 6.51 1.56C6.42 1.56 6.3 1.52 6.23 1.45C5.88 1.03 5.2 0.72 4.55 0.72L0.7 0.72L0.7 9.73L4.2 9.73C5.65 9.71 6.02 9.92 6.23 10.13C6.3 10.15 6.37 10.22 6.42 10.31L6.65 10.31C6.72 10.2 6.79 10.1 6.88 10.03L6.91 10.01C7.16 9.82 7.54 9.68 9.24 9.71L12.37 9.71L12.37 0.7L8.47 0.7C7.82 0.7 7.14 0.98 6.79 1.42Z " /><path id="分组 3" fill-rule="evenodd" style="fill:#A6A6A6" transform="translate(1.8899999999999997 1.5400000000000018)  rotate(0 5.133333331054688 5.4483333310546875)" opacity="1" d="M3.99 3.05667C3.99 2.86667 3.83 2.70667 3.64 2.70667L0.35 2.70667C0.16 2.70667 0 2.86667 0 3.05667C0 3.24667 0.16 3.40667 0.35 3.40667L3.64 3.40667C3.83 3.40667 3.99 3.24667 3.99 3.05667Z M3.99 4.99333C3.99 4.80333 3.83 4.64333 3.64 4.64333L0.35 4.64333C0.16 4.64333 0 4.80333 0 4.99333C0 5.18333 0.16 5.34333 0.35 5.34333L3.64 5.34333C3.83 5.34333 3.99 5.18333 3.99 4.99333Z M3.99 6.90667C3.99 6.71667 3.83 6.55667 3.64 6.55667L0.35 6.55667C0.16 6.55667 0 6.71667 0 6.90667C0 7.09667 0.16 7.25667 0.35 7.25667L3.64 7.25667C3.83 7.25667 3.99 7.09667 3.99 6.90667Z M10.0567 4.99333C10.0567 4.80333 9.89667 4.64333 9.70667 4.64333L6.41667 4.64333C6.22667 4.64333 6.06667 4.80333 6.06667 4.99333C6.06667 5.18333 6.22667 5.34333 6.41667 5.34333L9.70667 5.34333C9.89667 5.34333 10.0567 5.18333 10.0567 4.99333Z M10.0567 6.90667C10.0567 6.71667 9.89667 6.55667 9.70667 6.55667L6.41667 6.55667C6.22667 6.55667 6.06667 6.71667 6.06667 6.90667C6.06667 7.09667 6.22667 7.25667 6.41667 7.25667L9.70667 7.25667C9.89667 7.25667 10.0567 7.09667 10.0567 6.90667Z M5.46 10.5433L5.46 1.07333C5.46 0.883333 5.3 0.723333 5.11 0.723333C4.92 0.723333 4.76 0.883333 4.76 1.07333L4.76 10.5433C4.76 10.7333 4.92 10.8933 5.11 10.8933C5.3 10.8933 5.46 10.7533 5.46 10.5433Z M7.95333 3.69L8.84333 3.17L9.73333 3.71C9.84333 3.78 9.96333 3.78 10.0833 3.71C10.1933 3.64 10.2633 3.52 10.2633 3.41L10.2633 0.35C10.2633 0.16 10.1033 0 9.91333 0L7.79333 0C7.60333 0 7.44333 0.16 7.44333 0.35L7.44333 3.41C7.44333 3.52 7.51333 3.64 7.63333 3.71C7.67333 3.73 7.72333 3.76 7.79333 3.76C7.84333 3.76 7.91333 3.73 7.95333 3.69Z M8.14333 2.8L8.68333 2.5C8.79333 2.43 8.91333 2.43 9.03333 2.5L9.56333 2.8L9.56333 0.7L8.14333 0.7L8.14333 2.8Z " /></g></g></svg>