<svg xmlns="http://www.w3.org/2000/svg" xmlns:xlink="http://www.w3.org/1999/xlink" width="16" height="16" viewBox="0 0 16 16" fill="none"><defs><rect id="path_0" x="0" y="0" width="16" height="16" /></defs><g opacity="1" transform="translate(0 0)  rotate(0 8 8)"><mask id="bg-mask-0" fill="white"><use xlink:href="#path_0"></use></mask><g mask="url(#bg-mask-0)" ><path id="路径 1" fill-rule="evenodd" style="fill:#C53938" transform="translate(1.0154949070363042 2.668514590732882)  rotate(0 5.014468931603044 4.639492704633558)" opacity="1" d="M4.59,1.55C4.59,1.55 3.1,0.32 1.6,1.18C0.1,2.04 -0.94,4.35 1.28,6.81C3.51,9.26 6.21,9.28 6.21,9.28C6.21,9.28 8.68,8.18 9.73,5.04C10.78,1.89 8.9,0.2 7.17,0.01C5.45,-0.17 4.59,1.55 4.59,1.55Z " /><path id="路径 2" fill-rule="evenodd" style="fill:#F5E5E5" transform="translate(7.1044293979872375 6.222020761766995)  rotate(0 3.9400490679697846 3.676095230902566)" opacity="1" d="M4.39,1.35C4.39,1.35 3.8,-0.05 2.43,0C1.07,0.05 -0.5,1.29 0.15,3.82C0.81,6.35 2.7,7.35 2.7,7.35C2.7,7.35 4.83,7.48 6.71,5.67C8.59,3.85 7.9,1.98 6.76,1.22C5.62,0.46 4.39,1.35 4.39,1.35Z " /></g></g></svg>