<svg xmlns="http://www.w3.org/2000/svg" xmlns:xlink="http://www.w3.org/1999/xlink" width="16" height="16" viewBox="0 0 16 16" fill="none"><defs><rect id="path_0" x="0" y="0" width="16" height="16" /></defs><g opacity="1" transform="translate(0 0)  rotate(0 8 8)"><mask id="bg-mask-0" fill="white"><use xlink:href="#path_0"></use></mask><g mask="url(#bg-mask-0)" ><path id="路径 1" fill-rule="evenodd" style="fill:#F9B5A0" transform="translate(1.8703124999999998 5.533729759878078)  rotate(0 6.075 4.0401663700609625)" opacity="1" d="M12.07,8.08C12.11,8.08 12.15,8.04 12.15,8L12.15,0.08C12.15,0.05 12.13,0.02 12.1,0.01C12.07,-0.01 12.04,0 12.01,0.02L7.77,3.73L5.3,1.99C5.27,1.97 5.23,1.97 5.2,1.99L0.03,5.78C0.01,5.79 0,5.82 0,5.84L0,8C0,8.04 0.04,8.08 0.08,8.08L12.07,8.08Z " /><path id="分组 1" fill-rule="evenodd" style="fill:#FE7743" transform="translate(1.584734572051846 2.3999999999999995)  rotate(0 6.360757713974077 5.6078125)" opacity="1" d="M0.731203 10.8603L0.731203 9.22031C0.731203 9.03031 0.581203 8.87031 0.381203 8.87031L0.351203 8.87031C0.161203 8.87031 0.00120293 9.03031 0.00120293 9.22031L0.00120293 10.8603C0.00120293 11.0603 0.161203 11.2203 0.351203 11.2203L0.381203 11.2203C0.571203 11.2203 0.731203 11.0603 0.731203 10.8603Z M4.76089 10.8619L4.76089 6.77187C4.76089 6.58187 4.60089 6.42188 4.41089 6.42188L4.38089 6.42188C4.19089 6.42188 4.03089 6.58187 4.03089 6.77187L4.03089 10.8619C4.03089 11.0619 4.19089 11.2119 4.38089 11.2119L4.41089 11.2119C4.60089 11.2119 4.76089 11.0619 4.76089 10.8619Z M8.79058 10.8681L8.79058 7.27812C8.79058 7.08812 8.63058 6.92812 8.44058 6.92812L8.41058 6.92812C8.22058 6.92812 8.06058 7.08812 8.06058 7.27812L8.06058 10.8681C8.06058 11.0581 8.22058 11.2181 8.41058 11.2181L8.44058 11.2181C8.63058 11.2181 8.79058 11.0581 8.79058 10.8681Z M12.7187 10.8612L12.7187 3.48125C12.7187 3.29125 12.5587 3.13125 12.3687 3.13125L12.3387 3.13125C12.1487 3.13125 11.9887 3.29125 11.9887 3.48125L11.9887 10.8612C11.9887 11.0612 12.1487 11.2113 12.3387 11.2113L12.3687 11.2113C12.5587 11.2113 12.7187 11.0612 12.7187 10.8612Z M7.31 4.38C7.45 4.48 7.63 4.47 7.76 4.36L11.34 1.33L11.34 2.49C11.34 2.69 11.5 2.85 11.71 2.85C11.91 2.85 12.07 2.69 12.07 2.49L12.07 0.37C12.07 0.16 11.91 0 11.71 0L9.7 0C9.5 0 9.33 0.16 9.33 0.37C9.33 0.57 9.5 0.73 9.7 0.73L10.91 0.73C10.91 0.74 10.91 0.74 10.91 0.74L7.51 3.62L5.65 2.26C5.52 2.16 5.35 2.16 5.22 2.26L0.15 5.93C-0.01 6.05 -0.05 6.28 0.07 6.45C0.14 6.55 0.25 6.6 0.37 6.6C0.44 6.6 0.52 6.57 0.58 6.53L5.43 3.01L7.31 4.38Z " /></g></g></svg>