<svg xmlns="http://www.w3.org/2000/svg" xmlns:xlink="http://www.w3.org/1999/xlink" width="16" height="16" viewBox="0 0 16 16" fill="none"><defs><rect id="path_0" x="0" y="0" width="16" height="16" /></defs><g opacity="1" transform="translate(0 0)  rotate(0 8 8)"><mask id="bg-mask-0" fill="white"><use xlink:href="#path_0"></use></mask><g mask="url(#bg-mask-0)" ><path id="分组 1" fill-rule="evenodd" style="fill:#A6A6A6" transform="translate(0 0)  rotate(0 8 8)" opacity="1" d="M1.5 3L1.5 13C1.5 13.83 2.17 14.5 3 14.5L13 14.5C13.83 14.5 14.5 13.83 14.5 13L14.5 3C14.5 2.17 13.83 1.5 13 1.5L3 1.5C2.17 1.5 1.5 2.17 1.5 3Z M0 3L0 13C0 14.66 1.34 16 3 16L13 16C14.66 16 16 14.66 16 13L16 3C16 1.34 14.66 0 13 0L3 0C1.34 0 0 1.34 0 3Z " /><path id="路径 3" fill-rule="evenodd" style="fill:#FCC0CC" transform="translate(4 4.7669999999999995)  rotate(0 4.2425 3.359)" opacity="1" d="M0,3.54L3.18,6.72L8.49,1.42L7.07,0L3.18,3.89L1.41,2.12L0,3.54Z " /></g></g></svg>