<svg xmlns="http://www.w3.org/2000/svg" xmlns:xlink="http://www.w3.org/1999/xlink" width="16" height="16" viewBox="0 0 16 16" fill="none"><defs><rect id="path_0" x="0" y="0" width="16" height="16" /></defs><g opacity="1" transform="translate(0 0)  rotate(0 8 8)"><mask id="bg-mask-0" fill="white"><use xlink:href="#path_0"></use></mask><g mask="url(#bg-mask-0)" ><path  id="路径 1" style="stroke:#8BC6F0; stroke-width:1.3333333333333333; stroke-opacity:1; stroke-dasharray:0 0" transform="translate(3.6666666666666665 5.333333333333333)  rotate(0 4.333333333333333 4.666666666666666)" d="M8.67,0L0,0L1.17,9.33L7.67,9.33L8.67,0Z " /><path  id="路径 2" style="stroke:#8BC6F0; stroke-width:1.3333333333333333; stroke-opacity:1; stroke-dasharray:0 0" transform="translate(7.333333333333333 1.3333333333333333)  rotate(0 0.3333333333333333 1)" d="M0.67,2L0,0 " /><path  id="路径 3" style="stroke:#8BC6F0; stroke-width:1.3333333333333333; stroke-opacity:1; stroke-dasharray:0 0" transform="translate(2 5.333333333333333)  rotate(0 6 0)" d="M0,0L12,0 " /><path  id="路径 4" style="stroke:#8BC6F0; stroke-width:1.3333333333333333; stroke-opacity:1; stroke-dasharray:0 0" transform="translate(12 8.333333333333332)  rotate(0 0.9999954755438811 1.3333350340136054)" d="M0.33,0C0.33,0 2.16,0 1.99,1.47C1.82,2.94 0,2.64 0,2.64 " /><path  id="路径 5" style="stroke:#8BC6F0; stroke-width:1.3333333333333333; stroke-opacity:1; stroke-dasharray:0 0" transform="translate(1.9999985737371992 8.333333333333332)  rotate(0 1.0000007131314002 1.3333350340136054)" d="M1.67,0C1.67,0 -0.16,0 0.01,1.47C0.18,2.94 2,2.64 2,2.64 " /><path  id="路径 6" style="stroke:#8BC6F0; stroke-width:1.3333333333333333; stroke-opacity:1; stroke-dasharray:0 0" transform="translate(3.6666666666666665 3.333333333333333)  rotate(0 4.333333333333333 1)" d="M0,0L0,2L8.67,2L8.67,0L0,0Z " /></g></g></svg>