<svg xmlns="http://www.w3.org/2000/svg" xmlns:xlink="http://www.w3.org/1999/xlink" width="16" height="14.953271028037378" viewBox="0 0 16 14.953271028037378" fill="none"><defs><rect id="path_0" x="0" y="0" width="16" height="14.953271028037383" /></defs><g opacity="1" transform="translate(0 0)  rotate(0 8 7.4766355140186915)"><mask id="bg-mask-0" fill="white"><use xlink:href="#path_0"></use></mask><g mask="url(#bg-mask-0)" ><path id="分组 1" fill-rule="evenodd" style="fill:#3D3D3D" transform="translate(0 2.641918810281227)  rotate(0 7.972195041020966 1.7655980286214952)" opacity="1" d="M15.94 2.69L15.94 0.84C15.94 0.38 15.57 0 15.11 0L0.84 0C0.38 0 0 0.38 0 0.84L0 2.69C0 3.16 0.38 3.53 0.84 3.53L15.11 3.53C15.57 3.53 15.94 3.16 15.94 2.69Z M14.9791 2.57022L14.9791 0.960216L0.959061 0.960216L0.959061 2.57022L14.9791 2.57022Z " /><path id="分组 2" fill-rule="evenodd" style="fill:#3D3D3D" transform="translate(1.2851418195077489 0.00899719731853951)  rotate(0 6.68585439562443 7.474234623952771)" opacity="1" d="M13.37 14.1163L13.37 5.8263C13.37 5.5563 13.16 5.3463 12.89 5.3463L0.48 5.3463C0.21 5.3463 0 5.5563 0 5.8263L0 14.1063C0 14.5763 0.38 14.9463 0.84 14.9463L12.53 14.9463C12.99 14.9463 13.37 14.5763 13.37 14.1163Z M12.4091 13.9865L12.4091 6.30652L0.959061 6.30652L0.959061 13.9865L12.4091 13.9865Z M6.89943 3.6C7.15943 3.6 7.37943 3.38 7.37943 3.12L7.37943 1.83C7.39943 1.19 7.06943 0.58 6.51943 0.25C5.95943 -0.08 5.26943 -0.08 4.70943 0.25C4.15943 0.58 3.82943 1.19 3.84943 1.83L3.84943 3.12C3.84943 3.38 4.06943 3.6 4.32943 3.6C4.59943 3.6 4.80943 3.38 4.80943 3.12L4.80943 1.83C4.78943 1.53 4.93943 1.25 5.19943 1.1C5.44943 0.94 5.76943 0.94 6.02943 1.1C6.28943 1.25 6.43943 1.53 6.41943 1.83L6.41943 3.12C6.41943 3.38 6.62943 3.6 6.89943 3.6Z " /><path id="路径 6" fill-rule="evenodd" style="fill:#F683A2" transform="translate(3.996886957155879 7.626638664428903)  rotate(0 4.115570763901549 2.4420092178669104)" opacity="1" d="M0,4.88L8.23,4.88L8.23,0L0,0L0,4.88Z " /><path id="路径 7" fill-rule="evenodd" style="fill:#3D3D3D" transform="translate(7.703657947128531 0.07403285247414593)  rotate(0 1.7646723500455785 1.7634735094413705)" opacity="1" d="M3.53,1.76C3.53,0.79 2.74,0 1.76,0C0.79,0 0,0.79 0,1.76L0,3.05C0,3.31 0.21,3.53 0.48,3.53C0.74,3.53 0.96,3.31 0.96,3.05L0.96,1.76C0.96,1.32 1.32,0.96 1.76,0.96C2.21,0.96 2.57,1.32 2.57,1.76L2.57,3.05C2.57,3.31 2.78,3.53 3.05,3.53C3.31,3.53 3.53,3.31 3.53,3.05L3.53,1.76Z " /><path id="路径 8" fill-rule="evenodd" style="fill:#3D3D3D" transform="translate(7.703657947128534 2.253499076461719)  rotate(0 0.4795305305378305 6.303428805834093)" opacity="1" d="M0.96,12.13L0.96,0.48C0.96,0.21 0.74,0 0.48,0C0.21,0 0,0.21 0,0.48L0,12.13C0,12.39 0.21,12.61 0.48,12.61C0.74,12.61 0.96,12.39 0.96,12.13Z " /></g></g></svg>