<svg xmlns="http://www.w3.org/2000/svg" xmlns:xlink="http://www.w3.org/1999/xlink" width="16" height="16" viewBox="0 0 16 16" fill="none"><defs><rect id="path_0" x="0" y="0" width="16" height="16" /></defs><g opacity="1" transform="translate(0 0)  rotate(0 8 8)"><mask id="bg-mask-0" fill="white"><use xlink:href="#path_0"></use></mask><g mask="url(#bg-mask-0)" ><path id="路径 1" fill-rule="evenodd" style="fill:#CE6043" transform="translate(3.4203124999999996 3.41875)  rotate(0 4.5796875 4.5796875)" opacity="1" d="M0.71,0C0.45,0.22 0.22,0.45 0,0.71L8.45,9.16C8.71,8.94 8.94,8.71 9.16,8.45L0.71,0Z " /><path id="分组 1" fill-rule="evenodd" style="fill:#727272" transform="translate(1 1)  rotate(0 7 7)" opacity="1" d="M13.45 4.28C13.1 3.44 12.59 2.69 11.95 2.05C11.31 1.41 10.56 0.9 9.73 0.55C8.86 0.19 7.94 0 7 0C6.05 0 5.14 0.19 4.27 0.55C3.44 0.9 2.69 1.41 2.05 2.05C1.41 2.69 0.9 3.44 0.55 4.28C0.18 5.14 0 6.06 0 7C0 7.95 0.18 8.86 0.55 9.73C0.9 10.56 1.41 11.31 2.05 11.95C2.69 12.59 3.44 13.1 4.28 13.45C5.14 13.82 6.05 14 7 14C7.94 14 8.86 13.82 9.72 13.45C10.56 13.1 11.31 12.59 11.95 11.95C12.59 11.31 13.1 10.56 13.45 9.73C13.81 8.86 14 7.95 14 7C14 6.06 13.81 5.14 13.45 4.28Z M13 7C13 3.69 10.31 1 7 1C5.53 1 4.17 1.53 3.13 2.42C2.87 2.64 2.64 2.87 2.42 3.13C1.53 4.17 1 5.53 1 7C1 10.31 3.69 13 7 13C8.47 13 9.83 12.46 10.87 11.58C11.13 11.36 11.36 11.13 11.58 10.87C12.47 9.83 13 8.48 13 7Z " /></g></g></svg>