<svg xmlns="http://www.w3.org/2000/svg" xmlns:xlink="http://www.w3.org/1999/xlink" width="16" height="16" viewBox="0 0 16 16" fill="none"><defs><rect id="path_0" x="0" y="0" width="16" height="16" /></defs><g opacity="1" transform="translate(0 0)  rotate(0 8 8)"><mask id="bg-mask-0" fill="white"><use xlink:href="#path_0"></use></mask><g mask="url(#bg-mask-0)" ><path id="分组 1" fill-rule="evenodd" style="fill:#666666" transform="translate(5.31635715625 0)  rotate(0 3.1192777109374994 2.6180604375)" opacity="1" d="M6.24 2.62C6.24 1.17 4.84 0 3.11 0C1.39 0 0 1.18 0 2.62C0 4.06 1.39 5.24 3.11 5.24C4.84 5.24 6.24 4.07 6.24 2.62Z M0.355473 2.61547C0.355473 3.86547 1.59547 4.88547 3.12547 4.88547C4.64547 4.88547 5.89547 3.86547 5.89547 2.61547C5.89547 1.37547 4.64547 0.355473 3.11547 0.355473C1.58547 0.355473 0.355473 1.37547 0.355473 2.61547Z " /><path id="路径 3" fill-rule="evenodd" style="fill:#666666" transform="translate(8.252566140625 4.8806476523417786)  rotate(0 0.17773662499999965 3.6595970332041112)" opacity="1" d="M0.36,7.14L0.36,0.18C0.36,0.08 0.28,0 0.18,0C0.08,0 0,0.08 0,0.18L0,7.14C0,7.24 0.08,7.32 0.18,7.32C0.28,7.32 0.36,7.24 0.36,7.14Z " /><g opacity="1" transform="translate(4.522281764572783 7.222637232322783)  rotate(0 4.258942889895751 4.102450774463608)"><path id="路径 4" fill-rule="evenodd" style="fill:#666666" transform="translate(3.8975727849476094 0)  rotate(0 2.3101564974219464 1.3173194531814092)" opacity="1" d="M0.1,0.33L4.38,2.61C4.4,2.63 4.43,2.63 4.46,2.63C4.52,2.63 4.57,2.6 4.6,2.54C4.64,2.46 4.61,2.35 4.53,2.3L0.26,0.02C0.22,0 0.17,-0.01 0.13,0.01C0.08,0.02 0.04,0.05 0.02,0.09C0,0.13 -0.01,0.18 0.01,0.23C0.02,0.27 0.05,0.31 0.1,0.33Z " /><path id="路径 5" fill-rule="evenodd" style="fill:#666666" transform="translate(0 4.621517379381713)  rotate(0 2.0435638369897164 1.7916920847727518)" opacity="1" d="M0.06,3.27C0.03,3.3 0,3.35 0,3.39C0,3.44 0.01,3.49 0.04,3.52C0.08,3.56 0.13,3.58 0.18,3.58C0.22,3.58 0.26,3.57 0.29,3.54L4.03,0.31C4.06,0.28 4.08,0.24 4.09,0.19C4.09,0.14 4.07,0.1 4.04,0.06C3.98,-0.01 3.87,-0.02 3.79,0.04L0.06,3.27Z " /></g><g opacity="1" transform="translate(2.8323459641817337 11.840940957727785)  rotate(0 5.168605949319037 1.7950762789486072)"><path id="路径 6" fill-rule="evenodd" style="fill:#666666" transform="translate(0 1.6183170769378776)  rotate(0 1.02571427001212 0.9859177404796684)" opacity="1" d="M0.3,0.05C0.27,0.02 0.22,0 0.18,0C0.13,0 0.09,0.02 0.05,0.05C0.02,0.09 0,0.13 0,0.18C0,0.23 0.02,0.27 0.05,0.3L1.74,1.92C1.78,1.95 1.82,1.97 1.87,1.97L1.88,1.97C1.95,1.97 2.01,1.93 2.04,1.86C2.07,1.79 2.05,1.72 2,1.67L0.3,0.05Z " /><path id="路径 7" fill-rule="evenodd" style="fill:#666666" transform="translate(5.418570017861118 0)  rotate(0 2.459320940388478 0.9929938080147629)" opacity="1" d="M4.71,1.98C4.81,2 4.9,1.93 4.92,1.84C4.93,1.74 4.87,1.64 4.77,1.63L0.24,0.01C0.15,-0.02 0.04,0.03 0.01,0.12C-0.02,0.21 0.03,0.31 0.12,0.35L4.65,1.97C4.67,1.98 4.69,1.98 4.71,1.97L4.71,1.98Z " /></g><g opacity="1" transform="translate(4.92806498417537 7.680840144369807)  rotate(0 4.104565790850307 4.159579359743233)"><path id="路径 8" fill-rule="evenodd" style="fill:#666666" transform="translate(6.7690336908517414 5.7958485630199466)  rotate(0 0.7200489454244359 1.26165507823326)" opacity="1" d="M0.33,2.44L1.42,0.26C1.44,0.21 1.45,0.16 1.43,0.12C1.42,0.07 1.38,0.04 1.34,0.02C1.25,-0.02 1.15,0.01 1.1,0.1L0.02,2.28C-0.02,2.37 0.01,2.47 0.1,2.52C0.12,2.52 0.15,2.52 0.18,2.52C0.24,2.52 0.3,2.49 0.33,2.44Z " /><path id="路径 9" fill-rule="evenodd" style="fill:#666666" transform="translate(0 0)  rotate(0 1.8494194612037558 1.3711610817892357)" opacity="1" d="M0.03,2.67C0.06,2.71 0.11,2.74 0.16,2.74C0.2,2.75 0.25,2.73 0.28,2.71L3.62,0.32C3.66,0.29 3.69,0.25 3.7,0.21C3.7,0.16 3.69,0.11 3.67,0.07C3.61,-0.01 3.5,-0.02 3.42,0.03L0.08,2.42C0.04,2.45 0.01,2.49 0,2.54C-0.01,2.58 0.01,2.63 0.03,2.67Z " /></g></g></g></svg>