<?xml version="1.0" standalone="no"?><!DOCTYPE svg PUBLIC "-//W3C//DTD SVG 1.1//EN" "http://www.w3.org/Graphics/SVG/1.1/DTD/svg11.dtd"><svg t="1659883450566" class="icon" viewBox="0 0 1024 1024" version="1.1" xmlns="http://www.w3.org/2000/svg" p-id="17670" xmlns:xlink="http://www.w3.org/1999/xlink" width="200" height="200"><defs><style type="text/css">@font-face { font-family: feedback-iconfont; src: url("//at.alicdn.com/t/font_1031158_u69w8yhxdu.woff2?t=1630033759944") format("woff2"), url("//at.alicdn.com/t/font_1031158_u69w8yhxdu.woff?t=1630033759944") format("woff"), url("//at.alicdn.com/t/font_1031158_u69w8yhxdu.ttf?t=1630033759944") format("truetype"); }
</style></defs><path d="M511.844527 478.970886a42.525749 42.525749 0 0 1-29.601675-11.900385l-203.884737-211.519751a148.733489 148.733489 0 0 1-27.895526-172.53426A149.714524 149.714524 0 0 1 338.07331 7.775345a150.439637 150.439637 0 0 1 153.212129 36.298308l20.559088 20.473781 20.559089-20.473781A149.927793 149.927793 0 0 1 638.654009 0.310946c40.521025 0 78.525481 15.781873 107.01816 44.48782a149.032065 149.032065 0 0 1-0.639806 211.05056l-202.477164 210.069524a42.18452 42.18452 0 0 1-30.710672 13.052036zM385.20566 42.922002c-41.118177 0-78.141598 22.691774-96.653308 59.246004a106.463662 106.463662 0 0 0 20.175205 123.439839L511.844527 436.359829l202.77574-210.410754a106.634277 106.634277 0 0 0 0.767767-151.079443A107.274082 107.274082 0 0 0 638.696663 42.964656c-28.791255 0-55.833707 11.132618-76.179528 31.350477l-35.615848 35.445234a21.284202 21.284202 0 0 1-30.11352 0.042654l-35.615848-35.445234A108.127156 108.127156 0 0 0 385.20566 42.922002zM234.595408 768.035083c-82.321661 0-149.287987-66.966326-149.287987-149.287987 0-25.762841 6.78194-51.227106 19.663361-73.79092 0.469191-0.981035 0.981035-1.663495 1.236957-2.090032a150.0131 150.0131 0 0 1 128.345016-73.407036 149.671871 149.671871 0 0 1 147.795107 129.368705c0.042654 0.213269 0.213269 0.895728 0.255922 1.791456 0.895728 6.653979 1.279611 12.582845 1.279611 18.127827 0 82.279008-66.966326 149.287987-149.287987 149.287987z m-102.411559-178.847009A106.762238 106.762238 0 0 0 234.595408 725.381372a106.762238 106.762238 0 0 0 105.909164-94.2647 229.732885 229.732885 0 0 1-62.615647 8.786664 234.467447 234.467447 0 0 1-145.705076-50.715262z m20.303166-38.345686a191.131277 191.131277 0 0 0 125.316602 46.236623 188.955938 188.955938 0 0 0 58.819467-9.298509A107.103467 107.103467 0 0 0 234.595408 512.070165a106.804891 106.804891 0 0 0-82.108393 38.772223zM944.43846 774.177217a21.198894 21.198894 0 0 1-18.213134-10.236891 188.230825 188.230825 0 0 1-23.075658-57.454548 136.44922 136.44922 0 0 1-114.141329 61.421344 137.9421 137.9421 0 0 1-113.928061-61.506651 187.932249 187.932249 0 0 1-23.118311 57.497202 21.49747 21.49747 0 0 1-18.213135 10.23689 21.15624 21.15624 0 0 1-20.729703-16.293717 21.326855 21.326855 0 0 1 2.516569-16.123103 146.55815 146.55815 0 0 0 21.326855-81.212665v-38.772223c0-83.942502 68.288591-152.231093 152.231093-152.231093s152.231093 68.288591 152.231093 152.231093v38.04711c-0.981035 29.260445 6.398057 57.454548 21.326856 81.937778 2.98576 4.862523 3.881488 10.57812 2.516569 16.123103a21.070933 21.070933 0 0 1-9.639739 13.179996 20.942972 20.942972 0 0 1-11.089965 3.156375z m-244.96026-114.183983a94.307354 94.307354 0 0 0 98.999262 64.83364 95.032467 95.032467 0 0 0 80.188976-64.790987 193.136002 193.136002 0 0 1-89.615446-46.108661 192.496196 192.496196 0 0 1-89.572792 46.066008z m89.615446-147.795108a109.705344 109.705344 0 0 0-109.577382 108.127157 150.482291 150.482291 0 0 0 93.411626-50.885877c3.966795-4.563947 9.853007-7.208477 16.123102-7.208477s12.156308 2.64453 16.123103 7.208477a150.567598 150.567598 0 0 0 93.45428 50.885877 109.620036 109.620036 0 0 0-109.534729-108.127157zM21.326855 1023.957346a21.326855 21.326855 0 0 1-21.326855-21.326855c0-129.368704 105.226704-234.595408 234.595408-234.595408s234.595408 105.226704 234.595409 234.595408a21.326855 21.326855 0 0 1-21.326856 21.326855H21.326855z m404.058601-42.65371c-10.663428-96.525347-92.387937-170.614842-190.790048-170.614843s-180.12662 74.089495-190.790047 170.614843h381.580095z" p-id="17671" fill="#e89abe"></path><path d="M575.825093 1023.957346a21.326855 21.326855 0 0 1-21.326855-21.326855c0-129.368704 105.226704-234.595408 234.595408-234.595408s234.595408 105.226704 234.595408 234.595408a21.326855 21.326855 0 0 1-21.326855 21.326855h-426.537106z m404.015947-42.65371c-10.663428-96.525347-92.387937-170.614842-190.747394-170.614843s-180.12662 74.089495-190.747394 170.614843h381.494788z" p-id="17672" fill="#e89abe"></path></svg>